<svg width="124" height="121" viewBox="0 0 124 121" fill="none" xmlns="http://www.w3.org/2000/svg">
<path d="M62 120.5C96.2417 120.5 124 104.446 124 84.6432C124 64.84 96.2417 48.7864 62 48.7864C27.7583 48.7864 0 64.84 0 84.6432C0 104.446 27.7583 120.5 62 120.5Z" fill="#F8F9FA"/>
<path d="M11.22 84.3267L63.2262 114.401L106.847 89.1863L54.8458 59.1116L11.22 84.3267Z" fill="#F1F3F5"/>
<path d="M102.718 88.2262L63.2209 111.065L18.7437 85.2869L58.2409 62.4479L102.718 88.2262Z" fill="#F8F9FA"/>
<path opacity="0.5" d="M102.718 88.2262L63.2209 111.065L18.7437 85.2869L58.2409 62.4479L102.718 88.2262Z" fill="#ADB5BD"/>
<path d="M58.2409 31.4829V62.4479L18.7437 85.2868V54.3218L58.2409 31.4829Z" fill="#F8F9FA"/>
<path opacity="0.23" d="M58.2409 31.4829V62.4479L18.7437 85.2868V54.3218L58.2409 31.4829Z" fill="#ADB5BD"/>
<path d="M63.2209 80.1001V111.065L18.7437 85.2869V54.3218L63.2209 80.1001Z" fill="#F8F9FA"/>
<path opacity="0.38" d="M63.2209 80.1001V111.065L18.7437 85.2869V54.3218L63.2209 80.1001Z" fill="#ADB5BD"/>
<path d="M102.718 57.2611V88.2262L58.241 62.4479V31.4829L102.718 57.2611Z" fill="#F8F9FA"/>
<path opacity="0.4" d="M102.718 57.2611V88.2262L58.241 62.4479V31.4829L102.718 57.2611Z" fill="#ADB5BD"/>
<path d="M102.718 88.2262V57.2612L63.2212 80.1001V111.065L102.718 88.2262Z" fill="#F8F9FA"/>
<path opacity="0.23" d="M102.718 88.2262V57.2612L63.2212 80.1001V111.065L102.718 88.2262Z" fill="#ADB5BD"/>
<path d="M58.241 31.4829L58.2999 14.3403L102.665 40.1507L102.718 57.2611L58.241 31.4829Z" fill="#F8F9FA"/>
<path opacity="0.2" d="M58.241 31.4829L58.2999 14.3403L102.665 40.1507L102.718 57.2611L58.241 31.4829Z" fill="#ADB5BD"/>
<path d="M63.2212 80.1001L66.9267 65.1083L106.065 42.4732L102.718 57.2612L63.2212 80.1001Z" fill="#F8F9FA"/>
<path opacity="0.3" d="M63.2212 80.1001L66.9267 65.1083L106.065 42.4732L102.718 57.2612L63.2212 80.1001Z" fill="#ADB5BD"/>
<path d="M18.7438 54.3218L14.0315 38.7722L53.5288 15.9279L58.241 31.4829L18.7438 54.3218Z" fill="#F8F9FA"/>
<path opacity="0.1" d="M18.7438 54.3218L14.0315 38.7722L53.5288 15.9279L58.241 31.4829L18.7438 54.3218Z" fill="#ADB5BD"/>
<path d="M18.7438 54.3218L9.45312 41.4702L53.9358 67.2485L63.2211 80.1001L18.7438 54.3218Z" fill="#F8F9FA"/>
<path opacity="0.45" d="M18.7438 54.3218L9.45312 41.4702L53.9358 67.2485L63.2211 80.1001L18.7438 54.3218Z" fill="#ADB5BD"/>
<path opacity="0.7" d="M9.45312 41.4702L53.9358 67.2485L63.2211 80.1001L53.4378 67.6991L9.45312 41.4702Z" fill="white"/>
<path opacity="0.7" d="M102.718 57.2612L63.2209 80.1001V111.065L63.9599 80.7223L102.718 57.2612Z" fill="white"/>
<path d="M44.7576 44.8762C48.8326 44.2862 52.5542 41.6687 54.9157 38.3485C56.0134 36.8037 56.8488 35.0712 57.3254 33.2315C57.7591 31.5419 58.0054 29.6485 57.5717 27.932C56.8327 24.9927 54.1125 23.2495 51.2369 22.8794C49.7858 22.6916 48.2864 22.8311 46.8995 23.3085C45.4269 23.818 44.2221 24.746 43.3118 26.0172C42.8405 26.6769 42.3479 27.4922 42.3211 28.329C42.2997 29.0584 42.8245 29.5787 43.5206 29.6967C44.3613 29.8416 45.2502 29.4822 45.9731 29.0745C46.862 28.5757 47.6224 27.9213 48.2596 27.1221C49.5555 25.4915 50.664 23.5016 51.2262 21.4902C51.7135 19.7469 51.6064 17.8482 51.2369 16.0942C50.8567 14.3027 50.1178 12.4737 48.8058 11.1595C47.435 9.78105 45.4805 9.09985 43.5956 8.85312C41.6839 8.60102 39.6705 8.77266 37.8391 9.40558C37.052 9.67914 36.238 10.0439 35.6276 10.6124C35.167 11.0415 34.6423 11.7549 34.8297 12.4468C35.0385 13.2192 36.0345 13.4552 36.7253 13.364C37.732 13.2353 38.6959 12.6078 39.4081 11.9105C40.1952 11.1434 40.9021 10.2048 41.4269 9.23394C41.8124 8.52056 42.048 7.72672 42.032 6.90607C41.9623 3.50007 38.214 1.30093 35.2688 0.684092C34.4709 0.517815 33.6677 0.464178 32.8538 0.523179C32.5807 0.544634 32.7467 0.973736 32.9662 0.957644C34.5084 0.839641 36.1041 1.30629 37.4696 1.99285C38.7976 2.65796 40.0667 3.63953 40.795 4.95902C41.5286 6.28923 41.4483 7.81791 40.6718 9.11058C40.1417 9.9956 39.4991 10.8913 38.7334 11.5886C38.0961 12.1679 37.1376 12.8384 36.2273 12.774C35.9596 12.7526 35.6222 12.6292 35.5205 12.3288C35.4027 11.9802 35.665 11.5672 35.8418 11.3526C36.2755 10.8109 36.9395 10.4891 37.5714 10.2048C39.1403 9.50749 40.9503 9.28222 42.6531 9.36804C44.4042 9.45922 46.2301 9.90978 47.6545 10.9825C48.9932 11.9856 49.7804 13.5464 50.257 15.118C50.7496 16.7432 50.9531 18.524 50.7282 20.2136C50.4926 21.9354 49.6733 23.582 48.7844 25.0517C47.7938 26.6877 46.5514 28.2539 44.688 28.9136C44.2274 29.0745 43.2636 29.3213 43.0815 28.6454C42.8994 27.9857 43.4242 27.1543 43.7669 26.634C44.538 25.454 45.5769 24.5368 46.8834 24.0004C48.1097 23.4962 49.4698 23.3085 50.7871 23.4104C53.3092 23.6035 55.8689 24.923 56.7471 27.4332C57.2611 28.9029 57.1594 30.5388 56.8809 32.0461C56.5757 33.7142 55.9599 35.3233 55.1085 36.7876C53.2878 39.9308 50.4444 42.2909 47.1351 43.7284C46.3426 44.0716 45.518 44.3613 44.6987 44.6348C44.613 44.6617 44.6505 44.8762 44.7469 44.8655L44.7576 44.8762Z" fill="#DEE2E6"/>
</svg>
